<svg width="76" height="84" viewBox="3 22 76 84" fill="none" xmlns="http://www.w3.org/2000/svg">
  <defs>
    <linearGradient id="catalexPeach" x1="0" y1="22" x2="0" y2="106" gradientUnits="userSpaceOnUse">
      <stop offset="0" stop-color="#B26B43"/>
      <stop offset="0.55" stop-color="#9C5A36"/>
      <stop offset="1" stop-color="#7A4022"/>
    </linearGradient>
    <mask id="catalexCutout" maskUnits="userSpaceOnUse" x="3" y="22" width="76" height="84">
      <rect x="3" y="22" width="76" height="84" fill="white"/>
      <path d="M40.524 78.4336L41.7697 76.373C44.5929 71.6987 48.5104 67.7812 53.1846 64.958L55.2453 63.7123L53.1846 62.4666C48.5104 59.6435 44.5929 55.7259 41.7697 51.0517L40.524 48.9911L39.2783 51.0517C36.4551 55.7259 32.5376 59.6435 27.8634 62.4666L25.8027 63.7123L27.8634 64.958C32.5376 67.7812 36.4551 71.6987 39.2783 76.373L40.524 78.4336Z" fill="black"/>
      <path d="M44.9043 64.6035H77.5362V62.3869H44.9043V64.6035Z" fill="black"/>
    </mask>
  </defs>
  <g mask="url(#catalexCutout)">
    <path d="M28.0632 84.9023V28.831L14.9786 36.3842L7.17076 40.889C4.91041 42.1942 3.51758 44.6058 3.51758 47.2164V84.9023C3.51758 87.1308 5.32427 88.9375 7.5528 88.9375H24.0279C26.2565 88.9375 28.0632 87.1308 28.0632 84.9023Z" fill="url(#catalexPeach)" opacity="0.55"/>
    <path d="M52.6087 84.8984V28.8271L65.6933 36.3802L73.5011 40.885C75.7615 42.1903 77.1543 44.6019 77.1543 47.2125V84.8984C77.1543 87.1269 75.3476 88.9336 73.1191 88.9336H56.6439C54.4154 88.9336 52.6087 87.1269 52.6087 84.8984Z" fill="url(#catalexPeach)" opacity="0.55"/>
    <path d="M39.5261 93.542V26.161C39.5261 24.991 39.0565 23.9325 38.3083 23.1684C37.7512 23.3276 37.21 23.5584 36.6927 23.8529L28.0651 28.8352L14.9805 36.3883V93.542C14.9805 95.9138 16.9065 97.8398 19.2783 97.8398H35.2282C37.6 97.8398 39.5261 95.9138 39.5261 93.542Z" fill="url(#catalexPeach)" opacity="0.8"/>
    <path d="M40.3431 93.4619V26.0809C40.3431 24.9109 40.8127 23.8524 41.5608 23.0883C42.1179 23.2475 42.6592 23.4783 43.1765 23.7728L51.8041 28.7551L64.8887 36.3082V93.4619C64.8887 95.8337 62.9626 97.7598 60.5908 97.7598H44.6409C42.2692 97.7598 40.3431 95.8337 40.3431 93.4619Z" fill="url(#catalexPeach)" opacity="0.8"/>
    <path d="M52.606 100.989V28.825L43.9943 23.8506C43.278 23.4367 42.514 23.1582 41.726 23.0069C40.5958 22.7841 39.4259 22.8398 38.3116 23.1661C37.7545 23.3253 37.2133 23.5561 36.6959 23.8506L28.0684 28.8329V100.989C28.0684 103.481 30.0899 105.494 32.5811 105.494H48.1091C50.6003 105.494 52.6139 103.481 52.6139 100.989H52.606Z" fill="url(#catalexPeach)"/>
  </g>
</svg>
